<?xml version="1.0"?>
<svg xmlns="http://www.w3.org/2000/svg" class="icon--sprite">
  <defs>
    <symbol viewBox="0 0 24 24" stroke-linecap="round" stroke-linejoin="round" id="icon--adjustments">
      <path d="M4 10a2 2 0 1 0 4 0a2 2 0 0 0 -4 0"/>
      <path d="M6 4v4"/>
      <path d="M6 12v8"/>
      <path d="M10 16a2 2 0 1 0 4 0a2 2 0 0 0 -4 0"/>
      <path d="M12 4v10"/>
      <path d="M12 18v2"/>
      <path d="M16 7a2 2 0 1 0 4 0a2 2 0 0 0 -4 0"/>
      <path d="M18 4v1"/>
      <path d="M18 9v11"/>
    </symbol>
    <symbol viewBox="0 0 24 24" stroke-linecap="round" stroke-linejoin="round" id="icon--adjustments-horizontal">
      <path d="M14 6m-2 0a2 2 0 1 0 4 0a2 2 0 1 0 -4 0"/>
      <path d="M4 6l8 0"/>
      <path d="M16 6l4 0"/>
      <path d="M8 12m-2 0a2 2 0 1 0 4 0a2 2 0 1 0 -4 0"/>
      <path d="M4 12l2 0"/>
      <path d="M10 12l10 0"/>
      <path d="M17 18m-2 0a2 2 0 1 0 4 0a2 2 0 1 0 -4 0"/>
      <path d="M4 18l11 0"/>
      <path d="M19 18l1 0"/>
    </symbol>
    <symbol viewBox="0 0 24 24" stroke-linecap="round" stroke-linejoin="round" id="icon--adjustments-off">
      <path d="M4 10a2 2 0 1 0 4 0a2 2 0 0 0 -4 0"/>
      <path d="M6 6v2"/>
      <path d="M6 12v8"/>
      <path d="M10 16a2 2 0 1 0 4 0a2 2 0 0 0 -4 0"/>
      <path d="M12 4v4m0 4v2"/>
      <path d="M12 18v2"/>
      <path d="M16 7a2 2 0 1 0 4 0a2 2 0 0 0 -4 0"/>
      <path d="M18 4v1"/>
      <path d="M18 9v5m0 4v2"/>
      <path d="M3 3l18 18"/>
    </symbol>
    <symbol viewBox="0 0 24 24" stroke-linecap="round" stroke-linejoin="round" id="icon--chevrons-up">
      <path d="M7 11l5 -5l5 5"/>
      <path d="M7 17l5 -5l5 5"/>
    </symbol>
    <symbol viewBox="0 0 24 24" stroke-linecap="round" stroke-linejoin="round" id="icon--device-analytics">
      <path d="M3 4m0 1a1 1 0 0 1 1 -1h16a1 1 0 0 1 1 1v10a1 1 0 0 1 -1 1h-16a1 1 0 0 1 -1 -1z"/>
      <path d="M7 20l10 0"/>
      <path d="M9 16l0 4"/>
      <path d="M15 16l0 4"/>
      <path d="M8 12l3 -3l2 2l3 -3"/>
    </symbol>
    <symbol viewBox="0 0 24 24" stroke-linecap="round" stroke-linejoin="round" id="icon--help-circle">
      <path d="M12 12m-9 0a9 9 0 1 0 18 0a9 9 0 1 0 -18 0"/>
      <path d="M12 17l0 .01"/>
      <path d="M12 13.5a1.5 1.5 0 0 1 1 -1.5a2.6 2.6 0 1 0 -3 -4"/>
    </symbol>
    <symbol viewBox="0 0 24 24" stroke-linecap="round" stroke-linejoin="round" id="icon--info-circle">
      <path d="M3 12a9 9 0 1 0 18 0a9 9 0 0 0 -18 0"/>
      <path d="M12 9h.01"/>
      <path d="M11 12h1v4h1"/>
    </symbol>
    <symbol viewBox="0 0 24 24" stroke-linecap="round" stroke-linejoin="round" id="icon--logout">
      <path d="M14 8v-2a2 2 0 0 0 -2 -2h-7a2 2 0 0 0 -2 2v12a2 2 0 0 0 2 2h7a2 2 0 0 0 2 -2v-2"/>
      <path d="M9 12h12l-3 -3"/>
      <path d="M18 15l3 -3"/>
    </symbol>
    <symbol viewBox="0 0 24 24" stroke-linecap="round" stroke-linejoin="round" id="icon--my-page">
      <path d="M5 4h4a1 1 0 0 1 1 1v6a1 1 0 0 1 -1 1h-4a1 1 0 0 1 -1 -1v-6a1 1 0 0 1 1 -1"/>
      <path d="M5 16h4a1 1 0 0 1 1 1v2a1 1 0 0 1 -1 1h-4a1 1 0 0 1 -1 -1v-2a1 1 0 0 1 1 -1"/>
      <path d="M15 12h4a1 1 0 0 1 1 1v6a1 1 0 0 1 -1 1h-4a1 1 0 0 1 -1 -1v-6a1 1 0 0 1 1 -1"/>
      <path d="M15 4h4a1 1 0 0 1 1 1v2a1 1 0 0 1 -1 1h-4a1 1 0 0 1 -1 -1v-2a1 1 0 0 1 1 -1"/>
    </symbol>
    <symbol viewBox="0 0 24 24" stroke-linecap="round" stroke-linejoin="round" id="icon--user-scan">
      <path d="M10 9a2 2 0 1 0 4 0a2 2 0 0 0 -4 0"/>
      <path d="M4 8v-2a2 2 0 0 1 2 -2h2"/>
      <path d="M4 16v2a2 2 0 0 0 2 2h2"/>
      <path d="M16 4h2a2 2 0 0 1 2 2v2"/>
      <path d="M16 20h2a2 2 0 0 0 2 -2v-2"/>
      <path d="M8 16a2 2 0 0 1 2 -2h4a2 2 0 0 1 2 2"/>
    </symbol>
    <symbol viewBox="0 0 24 24" stroke-linecap="round" stroke-linejoin="round" id="icon--user-screen">
      <path d="M19.03 17.818a3 3 0 0 0 1.97 -2.818v-8a3 3 0 0 0 -3 -3h-12a3 3 0 0 0 -3 3v8c0 1.317 .85 2.436 2.03 2.84"/>
      <path d="M10 14a2 2 0 1 0 4 0a2 2 0 0 0 -4 0"/>
      <path d="M8 21a2 2 0 0 1 2 -2h4a2 2 0 0 1 2 2"/>
    </symbol>
  </defs>
</svg>
