<?xml version="1.0" encoding="UTF-8" standalone="no"?>
<!-- Created with Inkscape (http://www.inkscape.org/) -->

<svg
   width="23mm"
   height="16mm"
   viewBox="0 0 23 16"
   version="1.1"
   id="svg1411"
   inkscape:version="1.1.2 (0a00cf5339, 2022-02-04)"
   sodipodi:docname="redmine_white.svg"
   xmlns:inkscape="http://www.inkscape.org/namespaces/inkscape"
   xmlns:sodipodi="http://sodipodi.sourceforge.net/DTD/sodipodi-0.dtd"
   xmlns="http://www.w3.org/2000/svg"
   xmlns:svg="http://www.w3.org/2000/svg">
  <sodipodi:namedview
     id="namedview1413"
     pagecolor="#ffffff"
     bordercolor="#666666"
     borderopacity="1.0"
     inkscape:pageshadow="2"
     inkscape:pageopacity="0.0"
     inkscape:pagecheckerboard="0"
     inkscape:document-units="mm"
     showgrid="false"
     inkscape:zoom="0.47393378"
     inkscape:cx="5.2749985"
     inkscape:cy="-79.124978"
     inkscape:window-width="1312"
     inkscape:window-height="704"
     inkscape:window-x="54"
     inkscape:window-y="27"
     inkscape:window-maximized="1"
     inkscape:current-layer="layer1" />
  <defs
     id="defs1408" />
  <g
     inkscape:label="Calque 1"
     inkscape:groupmode="layer"
     id="layer1">
    <polygon
       fill-rule="evenodd"
       clip-rule="evenodd"
       fill="#4d4d4d"
       points="2.399,51.55 0,69.55 16.8,69.55 18,55.149 "
       id="polygon4"
       transform="matrix(0.26458333,0,0,0.26458333,1.4716639,-3.1858405)"
       style="fill:#ffffff" />
    <polygon
       fill-rule="evenodd"
       clip-rule="evenodd"
       fill="#4d4d4d"
       points="9,33.55 3,49.149 18,52.75 21.601,40.149 "
       id="polygon6"
       transform="matrix(0.26458333,0,0,0.26458333,1.4716639,-3.1858405)"
       style="fill:#ffffff" />
    <polygon
       fill-rule="evenodd"
       clip-rule="evenodd"
       fill="#4d4d4d"
       points="22.8,20.949 10.2,31.149 22.2,37.75 31.8,31.149 "
       id="polygon8"
       transform="matrix(0.26458333,0,0,0.26458333,1.4716639,-3.1858405)"
       style="fill:#ffffff" />
    <polygon
       fill-rule="evenodd"
       clip-rule="evenodd"
       fill="#4d4d4d"
       points="75,51.55 77.399,69.55 60.601,69.55 59.399,55.149 "
       id="polygon10"
       transform="matrix(0.26458333,0,0,0.26458333,1.4716639,-3.1858405)"
       style="fill:#ffffff" />
    <polygon
       fill-rule="evenodd"
       clip-rule="evenodd"
       fill="#4d4d4d"
       points="68.399,33.55 74.399,49.149 59.399,52.75 55.8,40.149 "
       id="polygon12"
       transform="matrix(0.26458333,0,0,0.26458333,1.4716639,-3.1858405)"
       style="fill:#ffffff" />
    <polygon
       fill-rule="evenodd"
       clip-rule="evenodd"
       fill="#4d4d4d"
       points="54.601,20.949 67.2,31.149 55.2,37.75 45.601,31.149 "
       id="polygon14"
       transform="matrix(0.26458333,0,0,0.26458333,1.4716639,-3.1858405)"
       style="fill:#ffffff" />
    <polygon
       fill-rule="evenodd"
       clip-rule="evenodd"
       fill="#4d4d4d"
       points="34.8,29.949 43.2,29.949 51,19.149 43.2,16.75 34.589,16.75 25.8,19.149 "
       id="polygon16"
       transform="matrix(0.26458333,0,0,0.26458333,1.4716639,-3.1858405)"
       style="fill:#ffffff" />
    <polygon
       fill-rule="evenodd"
       clip-rule="evenodd"
       fill="#9c0000"
       points="2.399,51.55 0,69.55 16.8,69.55 18,55.149 "
       id="polygon18"
       transform="matrix(0.26458333,0,0,0.26458333,1.4716639,-3.1858405)"
       style="fill:#ffffff" />
    <polygon
       fill-rule="evenodd"
       clip-rule="evenodd"
       fill="#b50808"
       points="9,33.55 3,49.149 18,52.75 21.601,40.149 "
       id="polygon20"
       transform="matrix(0.26458333,0,0,0.26458333,1.4716639,-3.1858405)"
       style="fill:#ffffff" />
    <polygon
       fill-rule="evenodd"
       clip-rule="evenodd"
       fill="#c61818"
       points="22.8,20.949 10.2,31.149 22.2,37.75 31.8,31.149 "
       id="polygon22"
       transform="matrix(0.26458333,0,0,0.26458333,1.4716639,-3.1858405)"
       style="fill:#ffffff" />
    <polygon
       fill-rule="evenodd"
       clip-rule="evenodd"
       fill="#9c0000"
       points="75,51.55 77.399,69.55 60.601,69.55 59.399,55.149 "
       id="polygon24"
       transform="matrix(0.26458333,0,0,0.26458333,1.4716639,-3.1858405)"
       style="fill:#ffffff" />
    <polygon
       fill-rule="evenodd"
       clip-rule="evenodd"
       fill="#b50808"
       points="68.399,33.55 74.399,49.149 59.399,52.75 55.8,40.149 "
       id="polygon26"
       transform="matrix(0.26458333,0,0,0.26458333,1.4716639,-3.1858405)"
       style="fill:#ffffff" />
    <polygon
       fill-rule="evenodd"
       clip-rule="evenodd"
       fill="#c61818"
       points="54.601,20.949 67.2,31.149 55.2,37.75 45.601,31.149 "
       id="polygon28"
       transform="matrix(0.26458333,0,0,0.26458333,1.4716639,-3.1858405)"
       style="fill:#ffffff" />
    <polygon
       fill-rule="evenodd"
       clip-rule="evenodd"
       fill="#ce3129"
       points="34.8,29.949 43.2,29.949 51,19.149 43.2,16.75 34.589,16.75 25.8,19.149 "
       id="polygon30"
       transform="matrix(0.26458333,0,0,0.26458333,1.4716639,-3.1858405)"
       style="fill:#ffffff" />
  </g>
</svg>
